/*
   notes and durations for Inspector Gadget and Pirates of the Carribean
*/
#include "pitches.h"

const int notesInspectorGadget[] = {
  NOTE_A3, NOTE_B3, NOTE_C4, NOTE_D4, NOTE_E4, 0, NOTE_C4, NOTE_DS4, NOTE_B3,
  NOTE_D4, NOTE_C4, NOTE_A3, NOTE_B3, NOTE_C4, NOTE_D4, NOTE_E4, 0, NOTE_A4,
  NOTE_GS4, NOTE_A3, NOTE_B3, NOTE_C4, NOTE_D4, NOTE_E4, 0, NOTE_C4, NOTE_DS4,
  NOTE_B3, NOTE_D4, NOTE_C4, NOTE_A4, NOTE_GS4, NOTE_G4, NOTE_FS4, NOTE_F4, 0,
  0, NOTE_E4, NOTE_A4
};
const int durationsInspectorGadget[] = {
  8, 16, 8, 16, 8, 16, 6, 6, 6, 6, 6, 8, 16, 8, 16, 8, 16, 6, 2, 8, 16, 8, 16,
  8, 16, 6, 6, 6, 6, 6, 8, 16, 8, 16, 8, 4, 6, 6, 8
};

const int tunePiratesTotalNotes = 203;
const int notesPirates[] = { // Note of the song, 0 is a rest/pulse
  NOTE_E4, NOTE_G4, NOTE_A4, NOTE_A4, 0,
  NOTE_A4, NOTE_B4, NOTE_C5, NOTE_C5, 0,
  NOTE_C5, NOTE_D5, NOTE_B4, NOTE_B4, 0,
  NOTE_A4, NOTE_G4, NOTE_A4, 0,

  NOTE_E4, NOTE_G4, NOTE_A4, NOTE_A4, 0,
  NOTE_A4, NOTE_B4, NOTE_C5, NOTE_C5, 0,
  NOTE_C5, NOTE_D5, NOTE_B4, NOTE_B4, 0,
  NOTE_A4, NOTE_G4, NOTE_A4, 0,

  NOTE_E4, NOTE_G4, NOTE_A4, NOTE_A4, 0,
  NOTE_A4, NOTE_C5, NOTE_D5, NOTE_D5, 0,
  NOTE_D5, NOTE_E5, NOTE_F5, NOTE_F5, 0,
  NOTE_E5, NOTE_D5, NOTE_E5, NOTE_A4, 0,

  NOTE_A4, NOTE_B4, NOTE_C5, NOTE_C5, 0,
  NOTE_D5, NOTE_E5, NOTE_A4, 0,
  NOTE_A4, NOTE_C5, NOTE_B4, NOTE_B4, 0,
  NOTE_C5, NOTE_A4, NOTE_B4, 0,

  NOTE_A4, NOTE_A4,
  //Repeat of first part
  NOTE_A4, NOTE_B4, NOTE_C5, NOTE_C5, 0,
  NOTE_C5, NOTE_D5, NOTE_B4, NOTE_B4, 0,
  NOTE_A4, NOTE_G4, NOTE_A4, 0,

  NOTE_E4, NOTE_G4, NOTE_A4, NOTE_A4, 0,
  NOTE_A4, NOTE_B4, NOTE_C5, NOTE_C5, 0,
  NOTE_C5, NOTE_D5, NOTE_B4, NOTE_B4, 0,
  NOTE_A4, NOTE_G4, NOTE_A4, 0,

  NOTE_E4, NOTE_G4, NOTE_A4, NOTE_A4, 0,
  NOTE_A4, NOTE_C5, NOTE_D5, NOTE_D5, 0,
  NOTE_D5, NOTE_E5, NOTE_F5, NOTE_F5, 0,
  NOTE_E5, NOTE_D5, NOTE_E5, NOTE_A4, 0,

  NOTE_A4, NOTE_B4, NOTE_C5, NOTE_C5, 0,
  NOTE_D5, NOTE_E5, NOTE_A4, 0,
  NOTE_A4, NOTE_C5, NOTE_B4, NOTE_B4, 0,
  NOTE_C5, NOTE_A4, NOTE_B4, 0,
  //End of Repeat

  NOTE_E5, 0, 0, NOTE_F5, 0, 0,
  NOTE_E5, NOTE_E5, 0, NOTE_G5, 0, NOTE_E5, NOTE_D5, 0, 0,
  NOTE_D5, 0, 0, NOTE_C5, 0, 0,
  NOTE_B4, NOTE_C5, 0, NOTE_B4, 0, NOTE_A4,

  NOTE_E5, 0, 0, NOTE_F5, 0, 0,
  NOTE_E5, NOTE_E5, 0, NOTE_G5, 0, NOTE_E5, NOTE_D5, 0, 0,
  NOTE_D5, 0, 0, NOTE_C5, 0, 0,
  NOTE_B4, NOTE_C5, 0, NOTE_B4, 0, NOTE_A4
};

const int durationsPirates[] = { //duration of each note (in ms) Quarter Note is set to 250 ms
  125, 125, 250, 125, 125,
  125, 125, 250, 125, 125,
  125, 125, 250, 125, 125,
  125, 125, 375, 125,

  125, 125, 250, 125, 125,
  125, 125, 250, 125, 125,
  125, 125, 250, 125, 125,
  125, 125, 375, 125,

  125, 125, 250, 125, 125,
  125, 125, 250, 125, 125,
  125, 125, 250, 125, 125,
  125, 125, 125, 250, 125,

  125, 125, 250, 125, 125,
  250, 125, 250, 125,
  125, 125, 250, 125, 125,
  125, 125, 375, 375,

  250, 125,
  //Rpeat of First Part
  125, 125, 250, 125, 125,
  125, 125, 250, 125, 125,
  125, 125, 375, 125,

  125, 125, 250, 125, 125,
  125, 125, 250, 125, 125,
  125, 125, 250, 125, 125,
  125, 125, 375, 125,

  125, 125, 250, 125, 125,
  125, 125, 250, 125, 125,
  125, 125, 250, 125, 125,
  125, 125, 125, 250, 125,

  125, 125, 250, 125, 125,
  250, 125, 250, 125,
  125, 125, 250, 125, 125,
  125, 125, 375, 375,
  //End of Repeat

  250, 125, 375, 250, 125, 375,
  125, 125, 125, 125, 125, 125, 125, 125, 375,
  250, 125, 375, 250, 125, 375,
  125, 125, 125, 125, 125, 500,

  250, 125, 375, 250, 125, 375,
  125, 125, 125, 125, 125, 125, 125, 125, 375,
  250, 125, 375, 250, 125, 375,
  125, 125, 125, 125, 125, 500
};
